<svg xmlns="http://www.w3.org/2000/svg" data-name="Layer 1" viewBox="0 0 100 100" x="0px" y="0px" style="&#10;fill:tomato;    width: 39px; height:auto; &#10;"><path d="M100,33v4.47c-0.07.3-.15,0.61-0.2,0.92a37.38,37.38,0,0,1-4.68,13.88A65,65,0,0,1,88,61.84,115,115,0,0,1,77,72.85c-3.59,3.12-7.24,6.18-11,9-5,3.76-10.2,7.29-15.3,10.94a0.92,0.92,0,0,1-1.22,0c-4.49-3.16-9.1-6.18-13.47-9.51-4.6-3.51-9-7.22-13.44-11a97.46,97.46,0,0,1-15-16,37.85,37.85,0,0,1-6.76-15C0.46,40,.23,38.83,0,37.61V33c0.06-.26.11-0.51,0.17-0.77,0.44-2,.72-4,1.35-6A27.25,27.25,0,0,1,14.26,10.68,27.31,27.31,0,0,1,33,7.41a27.52,27.52,0,0,1,16.2,9,5.33,5.33,0,0,1,.53.9c1.09-1.09,1.9-1.93,2.75-2.72a28.18,28.18,0,0,1,38.34-.13,27.63,27.63,0,0,1,8.25,13.84C99.51,29.83,99.71,31.41,100,33Z"/></svg>
